<svg version="1" xmlns="http://www.w3.org/2000/svg" width="533.333" height="533.333" viewBox="0 0 400.000000 400.000000"><path d="M101.7 1.1c-12.7 3-29 16.3-37.3 30.6-3.1 5.2-6.4 17.1-6.4 23.2 0 3.9-.8 5.4-8.7 15.6l-8.8 11.4h-4.8c-3.7.1-5.3.7-7.2 2.6L26 86.9v32c0 27.7.2 32.2 1.6 33.5 2.4 2.5 19.5 2.3 21.7-.2 1.5-1.7 1.7-5.5 1.7-34.5 0-31.6-.1-32.7-2-33.9-1.1-.7-2-1.6-2-2 0-.5 2.1-3.6 4.8-6.9l4.7-6.1.3 22.8c.1 12.6.6 74 1 136.4l.8 113.5 2.6 7.3c2.7 7.4 9.2 18.4 12.8 21.7 1.7 1.5 2 3.1 2 10.2 0 9.4 1.2 12.6 6 16.7 3.1 2.5 3.6 2.6 16.6 2.6H112l3.8-3.8c3.8-3.8 5.2-7.4 5.2-13.2v-2.8l39.3-.6c21.5-.4 49.3-.5 61.7-.3 12.4.3 30.5.5 40.3.6l17.7.1v4.8c0 3.8.6 5.8 3 9 1.6 2.3 3.8 4.6 4.9 5.1 1.1.6 7.9 1.1 15.3 1.1h13.4l3.5-3.6c3.4-3.5 3.4-3.6 3.7-14.1l.4-10.6 5.1-6.1c6.3-7.4 11.2-17.8 12.6-26.6.7-4.1 1.1-36.4 1.2-86 .1-43.7.5-103.1.8-131.9l.6-52.3 4.8 6.1c2.6 3.3 4.7 6.4 4.7 6.9 0 .4-.9 1.3-2 2-1.9 1.2-2 2.3-2 34.1 0 39-1 36.1 12.8 36.1 6.9 0 9.4-.4 10.6-1.6 1.4-1.3 1.6-5.9 1.6-34.4 0-32.8 0-32.9-2.2-34.4-1.2-.9-4.3-1.6-6.8-1.6h-4.5l-8.7-11.1c-7.9-9.9-8.8-11.4-8.8-15.2 0-5.3-2-12.9-5.4-20.3-1.9-4.2-5.3-8.3-12.4-15.4-10.3-10.2-16.9-14.4-28.3-18-6.2-1.9-9-2-99.4-1.9-51.1.1-94.7.5-96.8 1zM308 95.2c0 3.5-.9 31.7-2 62.8-1.1 31.1-2 59.3-2 62.7v6.3H201c-81.6 0-103.1-.3-103.5-1.3-.2-.6-2.2-30-4.4-65.2-2.3-35.2-4.3-65.7-4.6-67.8L88 89h220v6.2zM101 308.5c2 2.4.3 5.7-2.8 5.3-3-.3-4.1-3-2.2-5.3 1.6-1.9 3.4-1.9 5 0zm204.1 2.1c1.7 2.1 0 4.9-3.2 4.9-1.8 0-2.5-.6-2.7-2.4-.6-3.8 3.4-5.5 5.9-2.5zm-201 13c1.7 2.1 0 4.9-3.2 4.9-1.8 0-2.5-.6-2.7-2.4-.6-3.8 3.4-5.5 5.9-2.5zm198 2c1.7 2.1 0 4.9-3.2 4.9-1.8 0-2.5-.6-2.7-2.4-.6-3.8 3.4-5.5 5.9-2.5zm-195 13c1.7 2.1 0 4.9-3.2 4.9-2.4 0-3.6-2.3-2.5-5.1.7-1.9 4-1.8 5.7.2zm192.2 2.6c1.3 2-.6 4.8-3.4 4.8-2.2 0-3.5-3.6-1.8-5.6 1.5-1.8 3.8-1.5 5.2.8zM230 355v8h-60v-16h60v8zm-121.3-.4c.8 2.1-1.3 4.2-2.8 2.7-1.3-1.3-.5-4.3 1.1-4.3.6 0 1.3.7 1.7 1.6zm187.3 2.9c0 1.8-2.7 2.6-3.9 1.1-.7-.9-.7-1.6 0-2.3 1.4-1.4 3.9-.6 3.9 1.2z"/></svg>