<?xml version="1.0" standalone="no"?>
<!DOCTYPE svg PUBLIC "-//W3C//DTD SVG 20010904//EN"
 "http://www.w3.org/TR/2001/REC-SVG-20010904/DTD/svg10.dtd">
<svg version="1.0" xmlns="http://www.w3.org/2000/svg"
 width="400.000000pt" height="400.000000pt" viewBox="0 0 400.000000 400.000000"
 preserveAspectRatio="xMidYMid meet">
<metadata>
Created by potrace 1.11, written by Peter Selinger 2001-2013
</metadata>
<g transform="translate(0.000000,400.000000) scale(0.100000,-0.100000)"
fill="#000000" stroke="none">
<path d="M1005 3983 c-27 -8 -57 -21 -66 -29 -8 -8 -21 -14 -28 -14 -39 0
-217 -169 -264 -250 -31 -54 -67 -190 -67 -254 0 -24 -5 -48 -10 -51 -6 -3
-45 -50 -87 -103 -42 -53 -81 -100 -87 -104 -6 -4 -29 -8 -52 -8 -29 0 -46 -6
-62 -23 -22 -23 -22 -29 -22 -339 0 -375 -10 -348 127 -348 74 0 93 3 106 18
15 17 17 55 17 345 l0 327 -25 16 -24 16 52 65 52 65 3 -64 c1 -34 6 -646 11
-1358 7 -1198 9 -1299 26 -1350 25 -78 67 -158 114 -218 40 -51 41 -53 41
-132 0 -91 12 -123 60 -164 30 -25 36 -26 158 -26 108 0 132 3 159 20 41 24
63 68 70 135 l6 53 591 1 c325 1 682 -1 792 -5 l202 -7 4 -54 c4 -47 10 -59
48 -98 l44 -45 132 0 c118 0 134 2 158 21 45 35 56 70 56 169 l0 91 50 60 c56
68 89 127 115 209 17 51 19 157 26 1380 5 729 10 1338 11 1354 3 27 5 26 55
-37 l52 -65 -24 -16 -25 -16 0 -329 c0 -390 -10 -361 127 -361 74 0 93 3 106
18 15 17 17 55 17 345 0 325 0 326 -22 341 -12 9 -43 16 -68 16 l-46 0 -87
110 c-75 95 -87 116 -87 148 0 21 -7 65 -15 97 -28 108 -63 164 -164 266 -102
101 -168 143 -282 179 -62 19 -91 20 -994 19 -803 0 -937 -2 -980 -16z m2075
-955 c0 -51 -9 -347 -20 -658 -11 -311 -20 -582 -20 -602 l0 -38 -1035 0
-1035 0 0 28 c0 15 -20 324 -45 686 -24 363 -42 663 -39 668 3 4 498 8 1100 8
l1094 0 0 -92z m-2070 -2113 c20 -25 8 -50 -25 -50 -24 0 -31 5 -33 24 -6 37
34 55 58 26z m2040 -20 c20 -24 3 -57 -28 -53 -27 3 -39 26 -28 54 7 18 40 18
56 -1z m-2010 -130 c20 -24 3 -57 -28 -53 -27 3 -39 26 -28 54 7 18 40 18 56
-1z m1980 -20 c20 -24 3 -57 -28 -53 -27 3 -39 26 -28 54 7 18 40 18 56 -1z
m-1949 -131 c17 -21 0 -49 -32 -49 -24 0 -36 23 -25 51 7 19 40 18 57 -2z
m1924 -39 c0 -27 -3 -30 -30 -30 -21 0 -31 5 -33 18 -6 33 6 49 35 45 24 -3
28 -8 28 -33z m-687 -127 l-3 -83 -305 0 -305 0 -3 83 -3 82 311 0 311 0 -3
-82z m-1221 6 c8 -21 -13 -42 -28 -27 -13 13 -5 43 11 43 6 0 13 -7 17 -16z
m1871 -27 c4 -20 -25 -34 -40 -19 -15 15 -1 44 19 40 10 -2 19 -11 21 -21z"/>
</g>
</svg>
