<?xml version="1.0" encoding="utf-8"?>
<!-- Generator: Adobe Illustrator 24.0.1, SVG Export Plug-In . SVG Version: 6.00 Build 0)  -->
<svg version="1.1" id="Layer_1" xmlns="http://www.w3.org/2000/svg" xmlns:xlink="http://www.w3.org/1999/xlink" x="0px" y="0px"
	 width="16px" height="16px" viewBox="0 0 16 16" enable-background="new 0 0 16 16" xml:space="preserve">
<path id="Icon-Fill" fill-rule="evenodd" clip-rule="evenodd" fill="#FFFFFF" d="M4.0728674,10.625l0.0713139,0.008214
	c0.1374006,0.0322351,0.2397051,0.1555729,0.2397051,0.3028049c0,0.8689251,0.6976156,1.5758295,1.5550947,1.5758295
	c0.171771,0,0.3110189,0.1392479,0.3110189,0.3110189s-0.1392479,0.3110189-0.3110189,0.3110189
	c-0.8098416,0-1.4770885,0.6222553-1.5487275,1.4137535l-0.0063672,0.1413412l-0.0082145,0.0713139
	c-0.0268621,0.1145-0.1169901,0.2046289-0.2314906,0.2314911L4.0728674,15c-0.171771,0-0.3110189-0.1392479-0.3110189-0.3110189
	c0-0.8098412-0.6305416-1.4770889-1.4326024-1.548728l-0.1432271-0.0063667l-0.0713139-0.008214
	C1.9773046,13.0934372,1.875,12.9700994,1.875,12.8228674c0-0.171771,0.1392479-0.3110189,0.3110189-0.3110189
	c0.8067279,0,1.4952374-0.6436911,1.5692484-1.4347944l0.0065811-0.1410351l0.0082142-0.0713139
	c0.0268621-0.1145,0.1169903-0.2046289,0.2314909-0.2314911L4.0728674,10.625z M10.6457348,4.5
	c0.3435421,0,0.6220379,0.2784958,0.6220379,0.6220379c0,1.7378497,1.3952312,3.151659,3.1101894,3.151659
	C14.7215042,8.2736969,15,8.5521927,15,8.8957348s-0.2784958,0.6220379-0.6220379,0.6220379
	c-1.6558218,0-3.013587,1.3006668-3.105257,2.9339647l-0.0049324,0.1762247l-0.0067444,0.0919199
	c-0.0394926,0.2666273-0.2481699,0.4781094-0.513401,0.5218134L10.6457348,13.25
	c-0.3435421,0-0.6220379-0.2784958-0.6220379-0.6220379c0-1.6558218-1.3179865-3.013587-2.9730821-3.105257L6.8720379,9.5177727
	L6.7801175,9.5110283C6.4801617,9.4665995,6.25,9.208046,6.25,8.8957348c0-0.3435421,0.2784958-0.6220379,0.6220379-0.6220379
	c1.649456,0,3.0518064-1.3454728,3.1465588-2.9759254l0.0051003-0.1757336l0.0067444-0.0919204
	c0.0394917-0.2666273,0.2481699-0.4781089,0.513401-0.5218129L10.6457348,4.5z M10.6330004,7.6570001l-0.041028,0.0622306
	c-0.3166742,0.4485302-0.7115564,0.8389645-1.1630526,1.1504736L9.4060001,8.8830004l0.0727272,0.0486412
	c0.3735962,0.2593679,0.7060041,0.5728235,0.9857244,0.9286966l0.1775484,0.2426615l0.0410881-0.0601597
	c0.2596407-0.3700581,0.5733242-0.6991692,0.9292955-0.976037l0.2406158-0.1748028l-0.1393175-0.0984945
	c-0.3731623-0.276516-0.7026501-0.6095009-0.9761181-0.9862943L10.6330004,7.6570001z M4.0770144,1
	c0.240479,0,0.4354262,0.1949471,0.4354262,0.4354266c0,1.2164947,0.9766617,2.206161,2.1771326,2.206161
	c0.2404795,0,0.4354267,0.194947,0.4354267,0.4354267c0,0.240479-0.1949472,0.4354262-0.4354267,0.4354262
	c-1.1482763,0-2.0917826,0.8935809-2.1716557,2.0218806l-0.005477,0.155252L4.5054255,6.7678418
	c-0.0322599,0.1777353-0.1724076,0.317883-0.350143,0.350143L4.0770144,7.125c-0.2404797,0-0.4354267-0.1949472-0.4354267-0.4354267
	c0-1.1482763-0.9054794-2.0917826-2.0488372-2.1716557l-0.1573241-0.005477L1.3571581,4.5054255
	C1.1540322,4.4685569,1,4.2907739,1,4.0770144c0-0.2404797,0.1949471-0.4354267,0.4354266-0.4354267
	c1.1438617,0,2.1179576-0.9243629,2.2004995-2.0513l0.0056617-0.1548611L3.648603,1.3571581
	C3.6808629,1.179423,3.8210106,1.0392752,3.9987457,1.0070153L4.0770144,1z"/>
</svg>
